<svg width="276" height="200" viewBox="0 0 276 200" fill="none" xmlns="http://www.w3.org/2000/svg">
<path d="M276 100.287C276 58.208 241.888 24.0964 199.81 24.0964H76.1905C34.1116 24.0964 0 58.2081 0 100.287V123.81C0 165.888 34.1116 200 76.1905 200H199.81C241.888 200 276 165.888 276 123.81V100.287Z" fill="#EEEEEF"/>
<mask id="mask0_36_3519" style="mask-type:alpha" maskUnits="userSpaceOnUse" x="0" y="0" width="276" height="200">
<rect width="276" height="200" rx="76.1905" transform="matrix(-1 0 0 1 276 0)" fill="#E50A3E"/>
</mask>
<g mask="url(#mask0_36_3519)">
<path d="M193.864 167.899C168.524 108.174 150.83 87.9803 145.151 85.3493C152.788 70.6355 171.947 42.4489 187.482 47.4129C203.017 52.3769 253.54 101.568 276.86 125.544L285.063 236.285L260.841 240.038C249.074 240.877 219.205 227.625 193.864 167.899Z" fill="#B2B2B2"/>
<path d="M160.282 62.4919C168.668 52.4668 178.659 44.5937 187.482 47.4129C193.195 49.2384 203.64 57.0454 215.723 67.3798C202.574 97.138 180.544 107.022 164.446 108.875C160.627 102.689 157.268 97.9138 154.413 94.3193L160.282 62.4919Z" fill="white"/>
<path d="M109.955 89.3784C111.602 90.0706 116.066 86.2436 118.092 84.2436L125.837 80.6549C127.652 83.764 150.492 95.0889 161.685 100.363C160.915 101.261 164.363 100.07 184.318 88.1213C204.272 76.1721 203.495 62.1261 200.612 56.5968C197.974 54.5922 189.031 46.6952 174.358 31.1441C159.686 15.5931 148.987 11.1949 145.471 10.9397C113.973 10.6568 91.4802 24.9124 90.7592 36.0965C90.1823 45.0438 92.7087 52.1505 94.0439 54.5854C93.6635 56.2993 93.0217 61.4391 93.498 68.2872C93.9744 75.1352 99.2568 74.4547 101.838 73.2585C99.4226 74.4429 96.7546 79.1875 99.4858 82.5349C101.671 85.2128 106.717 83.5371 108.968 82.3645C105.697 85.634 107.896 88.5133 109.955 89.3784Z" fill="#D4D4D4"/>
<path d="M144.338 80.853C134.086 77.1313 122.33 58.977 117.734 50.365L142.265 58.2294L146.131 63.52C150.159 69.7098 165.078 79.7106 172.034 83.9373C167.074 84.4599 154.591 84.5746 144.338 80.853Z" fill="#999999"/>
<path d="M143.812 37.3717C145.437 34.3882 149.028 27.5874 150.394 24.2512" stroke="#232323" stroke-width="1.99509" stroke-linecap="round"/>
<path d="M129.968 32.287L136.298 22.7268" stroke="#232323" stroke-width="1.99509" stroke-linecap="round"/>
<path d="M110.045 33.2025C107.916 31.3302 108.546 28.4178 109.127 27.1955L119.316 30.0108C122.404 31.3086 128.154 34.9466 126.445 39.1168C124.31 44.3295 112.706 35.5428 110.045 33.2025Z" fill="#EFEFEF"/>
<path opacity="0.5" d="M94.7996 72.3417C97.3876 71.5601 100.079 70.0187 100.424 67.287C100.979 62.8874 97.6867 56.5083 93.5131 58.6193C93.3168 61.0886 93.2286 64.4148 93.498 68.2871C93.6274 70.1473 94.1114 71.452 94.7996 72.3417Z" fill="#EFEFEF"/>
<path d="M141.341 59.3074C140.956 65.7446 138.75 79.5311 133.008 83.1794" stroke="#232323" stroke-width="1.99509" stroke-linecap="round" stroke-linejoin="round"/>
<path d="M173.064 84.3699C166.532 81.4623 151.335 72.2572 142.797 58.6975C134.335 56.771 116.518 51.565 112.944 46.1524C109.37 40.7399 108.294 31.978 108.203 28.2735L109.624 27.1601L165.822 44.91" stroke="#232323" stroke-width="1.99509" stroke-linecap="round" stroke-linejoin="round"/>
<path d="M104.921 30.3633L111.625 92.5979C112.035 96.3996 115.855 98.8412 119.48 97.6176L123.366 96.3058C126.273 95.3243 127.972 92.3045 127.3 89.3125L118.852 51.7015C118.382 49.6074 116.729 48.04 115.009 46.7589C110.18 43.1627 108.97 35.6231 109.02 30.3544C109.032 29.0236 107.853 27.9417 106.544 28.1843C105.517 28.3746 104.809 29.3249 104.921 30.3633Z" fill="#232323" stroke="#232323" stroke-width="1.99509" stroke-linecap="round"/>
<path d="M134.965 191.374C122.016 192.654 116.703 184.632 115.012 177.666C114.251 174.532 116.631 171.733 119.798 171.115L141.203 166.936C144.437 166.304 147.724 168.08 148.311 171.321C149.791 179.493 148.31 190.054 134.965 191.374Z" fill="#999999"/>
<path d="M130.468 175.62C95.2936 179.647 81.9287 175.173 78.278 170.135C77.1523 168.581 77.9315 166.569 79.1184 165.058C93.3408 146.945 94.8682 116.997 93.6264 100.926C93.4519 98.6671 94.3106 96.4418 96.0311 94.9649L107.71 84.9399C108.762 84.0372 110.064 83.4772 111.441 83.335L125.525 81.8813C126.711 81.7588 127.908 81.9509 128.995 82.4381L143.706 89.03C145.89 90.0087 147.379 92.0746 147.737 94.4425C151.71 120.75 164.645 139.81 172.236 147.798C173.348 148.967 174.977 149.43 176.396 150.198C178.783 151.489 179.861 154.387 180.12 156.003C180.735 159.404 170.397 171.049 130.468 175.62Z" fill="#999999"/>
<path d="M78.3135 170.183C82.0144 175.202 95.4059 179.634 130.468 175.62C170.397 171.049 180.735 159.404 180.121 156.003C179.861 154.383 178.779 151.477 176.382 150.19C175.965 149.966 175.532 149.769 175.099 149.571C174.615 149.351 174.132 149.13 173.674 148.875C167.478 156.252 143.83 164.757 80.2552 163.548C79.8945 164.048 79.525 164.539 79.1465 165.022C77.9438 166.557 77.1559 168.613 78.3135 170.183Z" fill="#D4D4D4"/>
<path d="M127.888 111.446L113.824 139.933C111.738 144.158 110.813 148.863 111.144 153.565C111.586 159.821 109.8 166.032 106.102 171.098L101.716 177.109L108.854 177.109L112.152 170.124C114.272 165.634 115.087 160.638 114.502 155.707C113.921 150.796 114.726 145.82 116.827 141.344L130.862 111.446L124.319 106.024L127.888 111.446Z" fill="#232323"/>
<path d="M145.952 90.6785C130.931 95.7215 109.505 97.0388 94.4444 96.9775C94.8468 96.2099 95.39 95.5154 96.0638 94.937L107.72 84.9315C108.766 84.0339 110.056 83.4781 111.419 83.3373L125.547 81.879C126.719 81.758 127.903 81.9484 128.98 82.4313L143.68 89.0181C144.557 89.4113 145.324 89.9818 145.952 90.6785Z" fill="#D4D4D4"/>
<path d="M148.439 173.19C149.601 179.039 148.414 190.759 134.361 190.843" stroke="#232323" stroke-width="2.26338" stroke-linecap="round"/>
<path d="M99.9547 74.911C101.283 72.4548 106.718 65.8259 110.017 61.5423C113.317 57.2586 120.678 54.3719 123.946 53.4641" stroke="#232323" stroke-width="1.99509" stroke-linecap="round" stroke-linejoin="round"/>
<path d="M108.043 83.4425C113.221 78.8562 124.116 68.8353 126.278 65.4424" stroke="#232323" stroke-width="1.99509" stroke-linecap="round" stroke-linejoin="round"/>
<path opacity="0.4" d="M93.7108 53.9297C95.0288 54.3023 96.6172 54.2973 98.4836 53.7625C99.9564 48.5971 101.212 38.3869 94.4497 38.8694C92.8915 38.9805 91.6454 39.6713 90.7228 40.7031C91.0167 46.7946 92.5998 51.5905 93.7108 53.9297Z" fill="#EFEFEF"/>
<path d="M111.137 41.727C100.443 54.6348 95.2856 55.6774 94.0438 54.5853C90.2271 47.6045 86.616 31.1293 102.705 21.0752C122.817 8.50762 149.631 6.08855 163.181 21.3148C174.022 33.4958 190.145 47.3915 196.851 52.8168" stroke="#232323" stroke-width="1.99509" stroke-linecap="round" stroke-linejoin="round"/>
<path d="M161.685 100.363C169.311 97.4572 186.781 89.0588 195.655 78.7099" stroke="#232323" stroke-width="1.99509" stroke-linecap="round"/>
<path d="M172.848 124.362C188.654 157.644 218.986 225.92 241.989 234.804" stroke="#232323" stroke-width="1.99509" stroke-linecap="round"/>
<path d="M112.982 176.868C119.924 176.769 189.196 170.541 179.398 153.759C177.853 151.113 174.353 149.143 172.796 148.489" stroke="#232323" stroke-width="2.26338" stroke-linecap="round"/>
<path d="M164.253 111.348L172.97 98.3367" stroke="white" stroke-width="2.49084" stroke-linecap="round"/>
<path d="M168.861 117.557L181.587 108.409" stroke="white" stroke-width="2.49084" stroke-linecap="round"/>
<path d="M173.055 124.456L188.487 121.614" stroke="white" stroke-width="2.49084" stroke-linecap="round"/>
<path d="M69.8319 166.254L54.7964 170.173" stroke="white" stroke-width="2.49084" stroke-linecap="round"/>
<path d="M70.4307 158.511L54.9115 156.847" stroke="white" stroke-width="2.49084" stroke-linecap="round"/>
<path d="M71.791 150.527L58.3611 142.321" stroke="white" stroke-width="2.49084" stroke-linecap="round"/>
</g>
<path fill-rule="evenodd" clip-rule="evenodd" d="M69.4814 130.582C77.8669 125.629 83.2758 117.82 83.2758 109.036C83.2758 94.0646 67.5634 81.9277 48.181 81.9277C28.7987 81.9277 13.0862 94.0646 13.0862 109.036C13.0862 124.008 28.7987 136.145 48.181 136.145C51.2745 136.145 54.2744 135.835 57.132 135.255C63.5613 138.019 70.8188 139.267 76.867 139.707C78.2622 139.808 78.7689 137.021 77.5585 136.32C74.7902 134.717 72.0497 132.716 69.4814 130.582Z" fill="white"/>
<path d="M59.4823 104.856C62.2219 112.166 62.9492 122.832 54.1323 126.221C47.0111 128.958 41.4404 125.037 38.903 118.267C38.094 116.108 37.5757 113.838 37.2879 111.591C36.3643 104.986 36.438 97.4923 43.753 94.6805C51.3103 91.7756 57.0552 98.3797 59.4823 104.856ZM52.0129 120.861C55.2587 119.614 53.0816 110.403 52.1623 107.95C51.6291 106.527 48.2664 99.6251 46.4255 100.333C46.1348 100.444 45.0224 101.321 44.9022 101.592C43.7384 104.846 45.0297 112.432 46.2432 115.67C47.0154 117.73 49.2031 121.941 52.0129 120.861Z" fill="#232323"/>
<path d="M111.542 171.415L106.71 170.232C106.522 170.512 106.328 170.788 106.129 171.061L101.716 177.108H108.854L111.542 171.415Z" fill="#EEEEEF"/>
</svg>
