<svg width="1108" height="616" viewBox="0 0 1108 616" fill="none" xmlns="http://www.w3.org/2000/svg" >
<mask id="path-1-outside-1_10006_21533" maskUnits="userSpaceOnUse" x="0" y="0.00195312" width="1108" height="616" fill="black">
<rect fill="white" y="0.00195312" width="1108" height="616"/>
<path fill-rule="evenodd" clip-rule="evenodd" d="M9.54552 50.1875C5.41591 50.994 2 54.3458 2 58.5535V556.03C2 560.238 5.4159 563.59 9.54551 564.396C28.6443 568.126 44.0614 584.947 49.1371 606.9C50.0065 610.66 53.2198 613.542 57.0795 613.542H366.079C369.939 613.542 373.152 610.66 374.021 606.9C379.791 581.945 398.924 563.621 421.638 563.621C444.352 563.621 463.485 581.945 469.255 606.9C470.125 610.66 473.338 613.542 477.198 613.542H1050.92C1054.78 613.542 1057.99 610.66 1058.86 606.9C1063.94 584.947 1079.35 568.125 1098.45 564.396C1102.58 563.59 1106 560.238 1106 556.03V58.5529C1106 54.3455 1102.58 50.9937 1098.46 50.187C1079.61 46.5047 1064.34 30.0696 1059.07 8.53506C1058.16 4.82564 1054.97 2.00195 1051.15 2.00195H476.973C473.154 2.00195 469.962 4.82571 469.054 8.53513C463.05 33.0544 444.094 50.9628 421.639 50.9628C399.184 50.9628 380.229 33.0544 374.225 8.53512C373.317 4.8257 370.124 2.00195 366.305 2.00195H56.8539C53.0349 2.00195 49.8428 4.82564 48.9345 8.53506C43.6611 30.0705 28.3968 46.5062 9.54552 50.1875Z"/>
</mask>
<path d="M48.9345 8.53506L46.9919 8.05937L48.9345 8.53506ZM469.054 8.53513L467.111 8.05944L469.054 8.53513ZM1059.07 8.53506L1057.13 9.01075L1059.07 8.53506ZM1098.46 50.187L1098.07 52.1499L1098.46 50.187ZM1098.45 564.396L1098.84 566.359L1098.45 564.396ZM1058.86 606.9L1056.91 606.449L1058.86 606.9ZM374.021 606.9L375.97 607.35L374.021 606.9ZM49.1371 606.9L47.1885 607.35L49.1371 606.9ZM374.225 8.53512L372.282 9.01081L374.225 8.53512ZM9.54552 50.1875L9.16219 48.2246L9.54552 50.1875ZM469.255 606.9L471.204 606.449L469.255 606.9ZM9.54551 564.396L9.16219 566.359L9.54551 564.396ZM4 556.03V58.5535H0V556.03H4ZM51.0857 606.449C45.8732 583.905 29.966 566.346 9.92884 562.433L9.16219 566.359C27.3226 569.906 42.2496 585.989 47.1885 607.35L51.0857 606.449ZM366.079 611.542H57.0795V615.542H366.079V611.542ZM421.638 561.621C397.755 561.621 377.993 580.842 372.073 606.449L375.97 607.35C381.589 583.047 400.094 565.621 421.638 565.621V561.621ZM471.204 606.449C465.283 580.842 445.522 561.621 421.638 561.621V565.621C443.182 565.621 461.687 583.047 467.307 607.35L471.204 606.449ZM1050.92 611.542H477.198V615.542H1050.92V611.542ZM1098.07 562.433C1078.03 566.346 1062.13 583.905 1056.91 606.449L1060.81 607.35C1065.75 585.989 1080.68 569.905 1098.84 566.359L1098.07 562.433ZM1104 58.5529V556.03H1108V58.5529H1104ZM1057.13 9.01075C1062.54 31.1293 1078.3 48.2867 1098.07 52.1499L1098.84 48.2241C1080.91 44.7227 1066.14 29.0099 1061.01 8.05937L1057.13 9.01075ZM476.973 4.00195H1051.15V0.00195312H476.973V4.00195ZM421.639 52.9628C445.25 52.9628 464.834 34.1756 470.996 9.01082L467.111 8.05944C461.265 31.9333 442.939 48.9628 421.639 48.9628V52.9628ZM372.282 9.01081C378.444 34.1756 398.029 52.9628 421.639 52.9628V48.9628C400.34 48.9628 382.013 31.9333 376.167 8.05943L372.282 9.01081ZM56.8539 4.00195H366.305V0.00195312H56.8539V4.00195ZM46.9919 8.05937C41.8615 29.0108 27.0873 44.7241 9.16219 48.2246L9.92884 52.1504C29.7062 48.2882 45.4607 31.1302 50.8771 9.01074L46.9919 8.05937ZM56.8539 0.00195312C51.999 0.00195312 48.0909 3.5713 46.9919 8.05937L50.8771 9.01074C51.5948 6.07998 54.0708 4.00195 56.8539 4.00195V0.00195312ZM476.973 0.00195312C472.118 0.00195312 468.21 3.57139 467.111 8.05944L470.996 9.01082C471.714 6.08003 474.19 4.00195 476.973 4.00195V0.00195312ZM1061.01 8.05937C1059.91 3.5713 1056 0.00195312 1051.15 0.00195312V4.00195C1053.93 4.00195 1056.41 6.07999 1057.13 9.01075L1061.01 8.05937ZM1108 58.5529C1108 53.1793 1103.68 49.1708 1098.84 48.2241L1098.07 52.1499C1101.48 52.8165 1104 55.5116 1104 58.5529H1108ZM1098.84 566.359C1103.68 565.413 1108 561.404 1108 556.03H1104C1104 559.072 1101.48 561.767 1098.07 562.433L1098.84 566.359ZM1050.92 615.542C1055.83 615.542 1059.76 611.9 1060.81 607.35L1056.91 606.449C1056.23 609.421 1053.73 611.542 1050.92 611.542V615.542ZM366.079 615.542C370.986 615.542 374.918 611.9 375.97 607.35L372.073 606.449C371.386 609.421 368.891 611.542 366.079 611.542V615.542ZM47.1885 607.35C48.2403 611.9 52.1727 615.542 57.0795 615.542V611.542C54.267 611.542 51.7727 609.421 51.0857 606.449L47.1885 607.35ZM376.167 8.05943C375.068 3.57139 371.16 0.00195312 366.305 0.00195312V4.00195C369.089 4.00195 371.565 6.08002 372.282 9.01081L376.167 8.05943ZM4 58.5535C4 55.5121 6.51632 52.8168 9.92884 52.1504L9.16219 48.2246C4.3155 49.1711 0 53.1796 0 58.5535H4ZM467.307 607.35C468.358 611.9 472.291 615.542 477.198 615.542V611.542C474.385 611.542 471.891 609.421 471.204 606.449L467.307 607.35ZM0 556.03C0 561.404 4.31549 565.413 9.16219 566.359L9.92884 562.433C6.51632 561.767 4 559.072 4 556.03H0Z" fill="#666666" mask="url(#path-1-outside-1_10006_21533)"/>
</svg>
